# xmcd
#
# Track frame offsets:
#	150
#	21597
#	42742
#	59142
#	76180
#	92035
#	110862
#	126682
#	139695
#	161252
#	181275
#	198887
#
# Disc length: 2933 seconds
#
# Revision: 2
# Processed by: cddbd v1.4PL0 Copyright (c) Steve Scherf et al.
# Submitted via: audiograbber 1.81.01
#
DISCID=b20b730c
DTITLE=Studebaker John and The Hawks - Time Will Tell
DYEAR=1997
DGENRE=Blues
TTITLE0=Rolling and Tumbling Around
TTITLE1=Here No More
TTITLE2=On This Highway
TTITLE3=Fear
TTITLE4=The Road
TTITLE5=Running Into The Rain
TTITLE6=She Plays Hard
TTITLE7=Playing With Fire
TTITLE8=Forever
TTITLE9=Nasty Mother
TTITLE10=Running Scared
TTITLE11=Time Will Tell
EXTD=
EXTT0=
EXTT1=
EXTT2=
EXTT3=
EXTT4=
EXTT5=
EXTT6=
EXTT7=
EXTT8=
EXTT9=
EXTT10=
EXTT11=
PLAYORDER=
